<svg width="29" height="30" viewBox="0 0 29 30" fill="none" xmlns="http://www.w3.org/2000/svg">
<path d="M14.5001 7.125C10.6495 7.125 7.49951 10.275 7.49951 14.1256C7.49951 15.7006 8.02451 17.1 8.89895 18.2386C8.89895 18.2386 9.16145 18.5881 9.2484 18.6767C10.0359 19.6397 11.9603 22.3517 11.9603 24.6272H17.2103C17.2103 22.3517 19.1348 19.6397 19.9223 18.6767C20.0092 18.5897 20.2717 18.2386 20.2717 18.2386C21.1462 17.1017 21.6712 15.6136 21.6712 14.1256C21.5005 10.275 18.3506 7.125 14.5001 7.125H14.5001Z" fill="black"/>
<path d="M11.875 26.3745H17.125V29.8739H11.875V26.3745Z" fill="black"/>
<path d="M0.500488 13.2495H5.75049V15H0.500488V13.2495Z" fill="black"/>
<path d="M23.2495 13.2495H28.4995V15H23.2495V13.2495Z" fill="black"/>
<path d="M23.7908 3.60583L25.0279 4.84286L21.3152 8.55558L20.0781 7.31855L23.7908 3.60583Z" fill="black"/>
<path d="M13.6255 0.124451H15.3761V5.37445H13.6255V0.124451Z" fill="black"/>
<path d="M5.21896 3.59784L8.93168 7.31056L7.69465 8.54758L3.98193 4.83487L5.21896 3.59784Z" fill="black"/>
</svg>
